<svg xmlns="http://www.w3.org/2000/svg" width="21" height="10.625" viewBox="90.5 769.493 21 10.625"><g data-name="google-plus-logo"><g data-name="Group 2168"><g data-name="Group 2167"><g data-name="Path 1289"><path d="M109.097 773.743v-2.402h-1.201v2.402h-2.403v1.202h2.403v2.402h1.201v-2.402h2.403v-1.202h-2.403Z" fill="#fff" fill-rule="evenodd"/><path d="M109.097 773.743v-2.402h-1.201v2.402h-2.403v1.202h2.403v2.402h1.201v-2.402h2.403v-1.202h-2.403Z" stroke-linejoin="round" stroke-linecap="round" stroke-width=".3" stroke="#fff" fill="transparent"/></g></g></g><g data-name="Group 2170"><g data-name="Group 2169"><path d="M96.507 773.743v2.125h3.398c-.496 1.237-1.832 2.125-3.398 2.125-1.987 0-3.604-1.43-3.604-3.187 0-1.758 1.617-3.188 3.604-3.188.861 0 1.69.273 2.334.77l1.578-1.603c-1.08-.833-2.47-1.292-3.912-1.292-3.312 0-6.007 2.383-6.007 5.313 0 2.93 2.695 5.312 6.007 5.312s6.006-2.383 6.006-5.312v-1.063h-6.006Z" fill="#fff" fill-rule="evenodd" data-name="Path 1290"/></g></g></g></svg>